<svg xmlns="http://www.w3.org/2000/svg" viewBox="0 0 40 42.37"><defs><style>.cls-1{fill:#b3b3b3;}.cls-2{fill:#a6120d;}.cls-3{fill:#dd1b16;}.cls-4{fill:#f2f2f2;}</style></defs><g id="Layer_2" data-name="Layer 2"><g id="Layer_1-2" data-name="Layer 1"><path class="cls-1" d="M19.94,0,0,7,3.15,33.14,20,42.37,36.85,33,40,6.89Z"/><path class="cls-2" d="M38,8.41,19.89,2.23V40.17l15.19-8.4L38,8.41Z"/><path class="cls-3" d="M2.24,8.51l2.7,23.36,15,8.3V2.22L2.24,8.51Z"/><path class="cls-4" d="M24.89,22.42l-5,2.33H14.64l-2.47,6.18L7.57,31,19.9,3.6l5,18.82Zm-.5-1.17L19.92,12.4l-3.67,8.7h3.64l4.5.15Z"/><path class="cls-1" d="M19.89,3.6v8.79l4.2,8.71H19.91v3.65h5.77L28.38,31l4.4.08L19.89,3.6Z"/></g></g></svg>