<svg width="455" height="80" xmlns="http://www.w3.org/2000/svg" xmlns:xlink="http://www.w3.org/1999/xlink" overflow="hidden"><defs><clipPath id="clip0"><rect x="56" y="179" width="455" height="80"/></clipPath></defs><g clip-path="url(#clip0)" transform="translate(-56 -179)"><path d="M57.5001 230.834C57.5001 228.44 59.4402 226.5 61.8335 226.5L206.167 226.5C208.56 226.5 210.5 228.44 210.5 230.834L210.5 248.167C210.5 250.56 208.56 252.5 206.167 252.5L61.8335 252.5C59.4402 252.5 57.5001 250.56 57.5001 248.167Z" stroke="#424242" stroke-linejoin="round" stroke-miterlimit="10" fill="#8DD8D3" fill-rule="evenodd"/><text font-family="Arial,Arial_MSFontService,sans-serif" font-weight="400" font-size="11" transform="translate(67.8928 243)">Product Feature State</text><path d="M0-0.5 46.9921-0.5C47.2683-0.5 47.4921-0.276142 47.4921 0L47.4921 17.5433 46.9921 17.0433 87.3176 17.0433 87.3176 18.0433 46.9921 18.0433C46.716 18.0433 46.4921 17.8194 46.4921 17.5433L46.4921 0 46.9921 0.5 0 0.5ZM85.9843 13.5433 93.9842 17.5433 85.9843 21.5433Z" fill="#424242" transform="matrix(1 -1.22465e-16 -1.22465e-16 -1 210.5 252.043)"/><rect x="304.5" y="185.5" width="206" height="73" fill="#8DD8D3"/><path d="M330.25 185.5 330.25 258.5M484.75 185.5 484.75 258.5" stroke="#424242" stroke-linejoin="round" stroke-miterlimit="10" fill="none" fill-rule="evenodd"/><rect x="304.5" y="185.5" width="206" height="73" stroke="#424242" stroke-linejoin="round" stroke-miterlimit="10" fill="none"/><text font-family="Arial,Arial_MSFontService,sans-serif" font-weight="400" font-size="19" transform="translate(368.825 228)">AppState</text><path d="M57.5001 185.834C57.5001 183.44 59.4402 181.5 61.8335 181.5L206.167 181.5C208.56 181.5 210.5 183.44 210.5 185.834L210.5 203.167C210.5 205.56 208.56 207.5 206.167 207.5L61.8335 207.5C59.4402 207.5 57.5001 205.56 57.5001 203.167Z" stroke="#424242" stroke-linejoin="round" stroke-miterlimit="10" fill="#8DD8D3" fill-rule="evenodd"/><text font-family="Arial,Arial_MSFontService,sans-serif" font-weight="400" font-size="11" transform="translate(67.8928 198)">User Feature State</text><path d="M210.5 180 257.492 180C257.768 180 257.992 180.224 257.992 180.5L257.992 208.028 257.492 207.528 297.818 207.528 297.818 208.528 257.492 208.528C257.216 208.528 256.992 208.304 256.992 208.028L256.992 180.5 257.492 181 210.5 181ZM296.484 204.028 304.484 208.028 296.484 212.028Z" fill="#424242"/></g></svg>