<svg xmlns="http://www.w3.org/2000/svg" viewBox="0 0 40.07 37.67"><defs><style>.cls-1{fill:#764abc;}</style></defs><g id="Layer_2" data-name="Layer 2"><g id="Layer_1-2" data-name="Layer 1"><path class="cls-1" d="M27.77,26.26a2.84,2.84,0,0,0,2.54-3.05,3,3,0,0,0-2.9-2.66h-.05a2.85,2.85,0,0,0-2.75,3,2.94,2.94,0,0,0,.81,1.89,18.22,18.22,0,0,1-8.36,8A13.75,13.75,0,0,1,8.75,35a7.07,7.07,0,0,1-5.21-3,7.48,7.48,0,0,1-.4-7.9A11.83,11.83,0,0,1,6.6,20c-.2-.66-.51-1.78-.66-2.6C-1.45,22.74-.69,30,1.56,33.4c1.68,2.55,5.09,4.13,8.87,4.13a12.78,12.78,0,0,0,3.06-.35A19.58,19.58,0,0,0,27.77,26.26Zm9-6.39c-3.87-4.53-16.11-7-16.11-7h-.79a2.86,2.86,0,0,0-2.56-1.56h-.09a2.82,2.82,0,0,0,.1,5.63h.25a2.6,2.6,0,0,0,2.25-1.56h1s7.55,1,10.86,3.21a13.67,13.67,0,0,1,5.41,6.53,7,7,0,0,1-.1,6,7.49,7.49,0,0,1-7,4.19,13.23,13.23,0,0,1-5-1.07c-.56.51-1.58,1.32-2.29,1.83a15.74,15.74,0,0,0,6.58,1.58c4.89,0,8.51-2.7,9.89-5.4C40.67,29.31,40.57,24.21,36.74,19.87Zm-25.8,7.2a2.83,2.83,0,0,0,2.82,2.72h.1a2.82,2.82,0,0,0-.1-5.64h-.1a.9.9,0,0,0-.36.05A18.46,18.46,0,0,1,10.69,13a13.51,13.51,0,0,1,3-7.8,8.71,8.71,0,0,1,6.18-2.81c5.34-.11,7.6,6.54,7.75,9.2.66.15,1.76.51,2.52.76C29.51,4.23,24.47,0,19.64,0c-4.52,0-8.7,3.27-10.36,8.1-2.32,6.44-.81,12.63,2,17.51A2.28,2.28,0,0,0,10.94,27.07Z"/></g></g></svg>