<svg width="500" height="173" xmlns="http://www.w3.org/2000/svg" xmlns:xlink="http://www.w3.org/1999/xlink" overflow="hidden"><defs><clipPath id="clip0"><rect x="48" y="263" width="500" height="173"/></clipPath></defs><g clip-path="url(#clip0)" transform="translate(-48 -263)"><rect x="49.5001" y="273.5" width="498" height="162" stroke="#424242" stroke-linejoin="round" stroke-miterlimit="10" stroke-dasharray="8 3" fill="none"/><rect x="68.5001" y="264.5" width="122" height="26" stroke="#000000" stroke-linejoin="round" stroke-miterlimit="10" stroke-dasharray="8 3" fill="#FFFFFF"/><text fill="#B7B7B7" font-family="3,3_MSFontService,sans-serif" font-weight="400" font-size="13" transform="translate(77.3373 281)">User Feature</text><path d="M62.5001 365.5 180.5 365.5 180.5 394.37C121.5 394.37 121.5 405.37 62.5001 399.12Z" stroke="#424242" stroke-linejoin="round" stroke-miterlimit="10" fill="#0B6374" fill-rule="evenodd"/><text font-family="Arial,Arial_MSFontService,sans-serif" font-weight="400" font-size="11" transform="translate(79.6255 376)">MaskUserName:: <tspan font-size="11" x="22.0867" y="13">boolean</tspan></text><path d="M192.5 365.5 290.5 365.5 290.5 394.37C241.5 394.37 241.5 405.37 192.5 399.12Z" stroke="#424242" stroke-linejoin="round" stroke-miterlimit="10" fill="#D7E6A3" fill-rule="evenodd"/><text font-family="Arial,Arial_MSFontService,sans-serif" font-weight="400" font-size="11" transform="translate(210.467 376)">CurrentUser: <tspan font-size="11" x="19.3333" y="13">User</tspan></text><path d="M299.5 365.5 412.5 365.5 412.5 394.37C356 394.37 356 405.37 299.5 399.12Z" stroke="#424242" stroke-linejoin="round" stroke-miterlimit="10" fill="#D7E6A3" fill-rule="evenodd"/><text font-family="Arial,Arial_MSFontService,sans-serif" font-weight="400" font-size="11" transform="translate(309.787 376)">UserAuthenticated:<tspan font-size="11" x="26.5" y="13">boolean</tspan></text><path d="M421.5 365.5 518.5 365.5 518.5 394.37C470 394.37 470 405.37 421.5 399.12Z" stroke="#424242" stroke-linejoin="round" stroke-miterlimit="10" fill="#FD5B58" fill-rule="evenodd"/><text font-family="Arial,Arial_MSFontService,sans-serif" font-weight="400" font-size="11" transform="translate(440.817 383)">Error: String</text><path d="M0 0 13.7983 0 13.7983 0.0991076 27.5965 0.0991076" stroke="#424242" stroke-linejoin="round" stroke-miterlimit="10" fill="none" fill-rule="evenodd" transform="matrix(1.83697e-16 1 1 -1.83697e-16 356.5 337.5)"/><path d="M336.5 337.5 470.305 337.5 470.305 365.915" stroke="#424242" stroke-linejoin="round" stroke-miterlimit="10" fill="none" fill-rule="evenodd"/><path d="M0 0 126.989 0 126.989 28.3452" stroke="#424242" stroke-linejoin="round" stroke-miterlimit="10" fill="none" fill-rule="evenodd" transform="matrix(-1 0 0 1 368.489 337.5)"/><path d="M0 0 255.187 0 255.187 28.3452" stroke="#424242" stroke-linejoin="round" stroke-miterlimit="10" fill="none" fill-rule="evenodd" transform="matrix(-1 0 0 1 376.687 337.5)"/><rect x="270.5" y="284.5" width="130" height="41" fill="#8DD8D3"/><path d="M286.75 284.5 286.75 325.5M384.25 284.5 384.25 325.5" stroke="#424242" stroke-linejoin="round" stroke-miterlimit="10" fill="none" fill-rule="evenodd"/><rect x="270.5" y="284.5" width="130" height="41" stroke="#424242" stroke-linejoin="round" stroke-miterlimit="10" fill="none"/><text font-family="Arial,Arial_MSFontService,sans-serif" font-weight="400" font-size="13" transform="translate(295.831 309)">UserState</text></g></svg>