<svg xmlns="http://www.w3.org/2000/svg" viewBox="0 0 440.52 327.61"><defs><style>.cls-1{stroke:#ba2bd2;stroke-miterlimit:10;}.cls-2{fill:#4b304a;}</style></defs><g id="Layer_2" data-name="Layer 2"><g id="Layer_2-2" data-name="Layer 2"><path class="cls-1" d="M412.53,157c-10.92,2.4-14.38,19.91-37.61,13.46.92-4.43,8.11-13.65,12.72-18.44-.69,0-9.41,5.9-14.94,17-3.87-1.3-13.27-1.66-18.81-1.48,7.38-8.48,6.46-20.65,21.21-35.22a30.77,30.77,0,0,0-11.43,11.8c-4.61,8.3-10.88,21.76-16.78,23.24-9.22,1.1-29.51,17-42,7.19.18-5,3.68-13.28,7.92-17.52,7.2-5,19.92-11.62,38-13.46,3.5-.74-10.86-3.87-35.21,6.45,3.68-7.93,21.93-25.07,47.38-30.24,24.52,2.4,19.12,14.57,41.49,22.87,2.58.18-9.17-3.61-16.72-12.73-6.17-7.45-8-8.66-15-11.61,14.57.73,24,8.48,45-3-2.32.38-10.32,4.79-21.38,4.24s-14.39-3-22.13-3.51c10.51-5,19.54-14,19.36-27.47a34.58,34.58,0,0,1-27.29,27.11,81.69,81.69,0,0,0-16.92,4,38.13,38.13,0,0,0,8.49-19.07c11.69-4,10.76-12.19,10.77-12.56h0c0,.07-1.21,6.5-10.51,10.11,0-.57.06-1.14.06-1.69,0-8.66,2.07-14.8,6.07-18.45h0c-5.1,3.39-8.29,9-8.29,18.45,0,8.28-4.47,19.67-12,25.26a57.12,57.12,0,0,0-13.61,7.74,105.83,105.83,0,0,0-14.5,13.92c-1.85-5-2.79-13.49-2.46-19.94,0,0-2.74,12.19.9,21.83a82.25,82.25,0,0,0-8.65,13.14c-5.16,9.78-10.51,11.62-14.38,11.62a74.74,74.74,0,0,0-19.48-1c3-5.93,4.29-12.68,9.16-21.2,5.9-10.32,11.06-13,7.13-11.76-11.41,7.42-13.26,22.86-22.63,33.58A77.55,77.55,0,0,0,239,177.85c2.76-11.62,10.69-29.14,22.68-40s25.63-10.32,35.77-18.07,17-16.87,23.23-18.62,11.44-1.85,16.05-5.72,6.55-10.79,10.69-13.64a13.84,13.84,0,0,0-6.17,5.42c-3,4.89-6.18,9-15,10.43l-1.06.2c1.8-5.11,5.29-13.6,4.41-18.67,0,0-3.94,14.78-7.31,19.29C316,100.06,312,102.79,306,108.51c-7.19,6.83-19.36,13.65-25.44,14.94s-4.8-3-.56-9c3.87-5.54,5.9-16.6,10.15-25.5,5.44.51,14,1.62,18.56-.42,0,0-12,0-17.44-1.78a3.24,3.24,0,0,1,.17-.32c5.16-9.22,17.33-15.68,26.92-18.44S338,60.39,343.94,49.14c.92-2.4-4.35,5.67-13.24,11.13-2.95,1.82-7.19,2.7-12,3.88,1.22-5.35,3.27-13.42,1.86-18.05,0,0-1.91,15.25-5,18.69,0,0,0,.1,0,.15-9.11,2.43-19.74,6.61-28,19.6-.55-8.29-2.76-20.41.37-31.59s7.93-18.56,12.72-23.36c0,0-3.68,2.06-8.2,8.29-6.45,8.89-10.6,20.29-9.87,37.81-.73,1.85-.92-7.37-7.37-18.25-3.06-5.16-6.57-7.7-10-12.13,1.13-5.24,3.7-14.36,2.16-19.4,0,0-1.46,11.69-3.91,16.91-3.14-4.89-6.35-10.42-8.38-25.4,0,0-1.5,3.88,2,18.56-10.27-8.75-23.76-6.61-24.38-6.63h0c.16,0,15.83.7,25.86,11.64C263,52.77,272.66,55.85,277,72.37a53.74,53.74,0,0,1-3.3,36.54C270.15,101.68,263.32,94,257,91.3c4.45,3.18,12.19,12.21,14.86,21.26-.44.84-.89,1.64-1.34,2.41-5.53,9.4-17.7,19.54-21.76,18.81a60.75,60.75,0,0,1-14.42-24.31c12-27.6,28-28.79,28-28.79-7.2-2.11-20.93,7.66-29.1,24.17a47.24,47.24,0,0,1-.86-7.58c-.55-18.63,8.48-34.67-7.56-56.06.47.64,3.86,9.36,4.52,10.78,3.84,8.31,2.12,20.2.64,32.37-.26,2.18-.55,4.43-.76,6.78-11.31-4.33-14.17-13-14.17-13-.64,4.48,5.16,12.19,14,15.73A55.48,55.48,0,0,0,233,118.35c-7.44-4.14-18.82-7.51-25.11-6.89,4.32.83,17.29,3.88,27.24,11.75a92.26,92.26,0,0,0,5.77,10.2c2.21,5.16,2,10.14-3,17.33s-12.72,21-14.38,28.4c-1.17-8.29-5.78-24.39-14.1-37.88C215.91,127.5,223,126.18,223,126.18c-3.74-1.14-10.64,3.78-15.33,12.28a64.88,64.88,0,0,0-5.68-7.27c-13.09-14.38-16-35.95-10.14-51.26s13.46-16.59,11.44-33,2.39-23.42,7-27.29c0,0-8.39,4.6-9.4,16.78,0,.34-.07.67-.11,1-3-4.55-5.75-11.55-7.27-15.94,0,0,1.79,13.36,7,18.49-1,13.1,1.28,15.9-5,23.55a79.79,79.79,0,0,0-6.88,9.19c-3.45-16.94-11.55-21.37-17.09-30.19-5.9-9.38-6-13.67-6.82-17.54,0,15.31,8.85,24.34,15.12,32.83a21.14,21.14,0,0,1,3.62,7.57c-7-3.88-12.29-5.59-19.85-5.3,8.57,2,14.11,2.74,20.51,8.94.43,3.49.4,7.24.75,11.62-2.61,7.55-3.51,17.56-.05,31.56-7.93-13.27-26.93-18.62-40-23.42l-2.3-.82a30.93,30.93,0,0,1-9-16.14c2.59-8.11,16.05-20.1,18.07-34.11-2.67,5.57-3.68,12.35-19,28.95-1.1-4.8-1.56-18-5.53-21.76,1.48,4.05,2.58,12.54,2.58,19.54,0,6.07,1.84,15.77,7.22,21.58-8.3-2.89-13.72-5.31-19-14.2a71.8,71.8,0,0,0-7.05-9.63c-1.06-11.95-5.16-18.2-6.39-20,1.46,3.76,2.78,7,4,17.25-6.18-6.71-12.74-12-15.43-12.73,4.35,3.35,12.35,10.7,21.2,23.79s9.22,16,28.95,21.76,35.59,15.85,45.36,36c-9.4-3.87-20.28,2-31.53,0a45.52,45.52,0,0,1-5.77-1.45c-3.1-8.1-10.82-21.91-18.32-25.9,3.86,3.38,12,14.9,14.6,24.58-9.91-1.92-14.91-7.61-17.43-10.13,1.29,4.32,5.49,8,13.09,11.43,13.45,6.1,22.5,6.08,31.53,5.16s22.68,3.87,27.85,14.57A65.45,65.45,0,0,1,207,160.11c-11.93-7.32-16.08-1.63-30.85-13.94,6.56,9.81,21.68,10.93,31.51,17.17,1.43,7.82,1.62,15.07-.16,17.27-7.85,1.8-23.82,3-33.51-1.11-4-8.21-2.39-18.19-3.25-26.94-1-10.05-6.39-18.23-5.65-13.81,5.4,14.19.71,24.66,3.08,37.09-7-5.48-9.85-10.43-14.33-19.57-3.78-7.68-14.22-11.87-26-12.65a52.21,52.21,0,0,1-13.41-17.77c-5.44-11.44-10.09-15.47-9.5-26,.62-10.92-2.63-23.37-6.82-28,2.77,4.79,5.49,18,5,24-.68,8.09-.67,14.32,2.48,20.54-6.48-2-13.18-6.87-16-11.47a14.89,14.89,0,0,0,2.9,5.59c3.59,4.16,10.31,7.5,14.58,8.48,3.48,6.15,8.2,18.8,14.48,24.6-1.7.06-3.41.19-5.11.39-11.14,1.29-17.1,5-26.37,4.66-5.34-4.42-6.48-13.14-7.75-20-1.47-7.93-3-9.22-8.85-18.44S70.3,86.94,69.56,86.39c-1.66,5-2.77,17.15.74,22.49-5.72-5.34-19.92-12-22.87-12.17,8.85,4.26,20.1,9.59,26.92,20.1a24,24,0,0,1,2.36,4.76,45.39,45.39,0,0,1-24.48-8.63c3.77,5.9,18.18,11.11,25.34,11.31,2.21,8,1.81,16.87,5.66,23.39a58.73,58.73,0,0,1-7.4-2.25c-19.36-7.19-31-6.64-39.83-2A27.49,27.49,0,0,1,15.16,145c-.18.56,6.53,5.86,20.42,1.09,11.87-4.08,19.67-4.26,29.05-1-3.42,6.19-9.66,11.73-15.48,15.16a29,29,0,0,0,8.61-4.17,42.61,42.61,0,0,0,9.89-9.85c.63.25,1.26.52,1.91.8,11.8,5.17,21.76,7.93,38.54,3.87s40.75-5,46.47,21.76c-12.37-3.71-28.64-4.37-43.44,2.08A60.62,60.62,0,0,1,95,163.18h0c.73,1.81,4.82,8,13.6,12.76-6.38,3.15-11.72,6.81-16.77,9.88a41,41,0,0,1-27.9-11.54c-2.44-2.1-2.9-1.21-1,.73a40,40,0,0,0,25.43,12.8c-5.53,3-10.95,5-17.35,4.42-13.64-1.29-20.09-9-32.26-6.82-1.48,1.1,7.37,0,17.14,5.16s20.29,7.93,35.41-1.29,35.4-15.67,57.34-9.59S180,193.52,200.11,195c7.93,6.64,13.28,24.16,12.17,36.7s4.43,20.65,1.48,36.51-6.09,36.14-14,52.55c0,3.52,12.43,6.36,27.75,6.36s27.75-2.84,27.75-6.36c-6.82-15.86-11.61-31.9-13.46-47.39s-12.17-52.37,2.58-83.71c12.91-11.07,38-16,53.73-9.1s28.76,2.29,47.94-7.83c5.16.7,18.93,8.07,25.38,14.9-1.59-3.24-13-13.81-18.53-16.05,13.28-1.3,24.06,3.88,32,3.51s13.65-5.53,16.41-7.56c3.51,3.69,14.39,11.43,22.68,11.25-.18-.92-15.85-4.61-20.83-12.73,2.76-3.31,9.22-11.61,23.42-7A18.75,18.75,0,0,0,412.53,157Z"/><path d="M58.62,194.64s-11.31-2.45-12.54,9.84C56.65,207.68,60.09,198.33,58.62,194.64Z"/><path d="M44.6,189.3s-11.3-2.46-12.53,9.84C42.64,202.33,46.08,193,44.6,189.3Z"/><path d="M36.62,184.67s-6.24-9.75-15.82-1.94C26,192.47,35.05,188.31,36.62,184.67Z"/><path d="M60.42,172.13s-6.24-9.74-15.82-1.94C49.8,179.94,58.85,175.78,60.42,172.13Z"/><path d="M46.21,183.32s1.39-11.49-11-11.57C33.05,182.57,42.67,185.13,46.21,183.32Z"/><path d="M48.66,160s-10.51-4.84-14.37,6.9C43.92,172.32,49.3,163.94,48.66,160Z"/><path d="M53.91,154.48s-4.62-10.61-15.31-4.42C42.19,160.51,51.78,157.83,53.91,154.48Z"/><path d="M64.86,152.57s-10.37,5.15-3.65,15.52C71.46,164,68.31,154.53,64.86,152.57Z"/><path d="M23.8,148.34s-10.37,5.15-3.65,15.52C30.4,159.75,27.26,150.3,23.8,148.34Z"/><path d="M15.16,146.57S5.39,140.37,0,151.49C8.82,158.13,15.27,150.54,15.16,146.57Z"/><path d="M20.17,143.65s2.39-11.32-9.91-12.48C7.12,141.76,16.49,145.15,20.17,143.65Z"/><path d="M30.82,144.81s5-10.42-6.61-14.5C18.62,139.84,26.89,145.38,30.82,144.81Z"/><path d="M61.59,120.74S52.1,114.11,46.23,125C54.75,132,61.53,124.71,61.59,120.74Z"/><path d="M71.24,125.6s-9.49-6.63-15.36,4.23C64.4,136.86,71.18,129.57,71.24,125.6Z"/><path class="cls-2" d="M52.4,115.08s-3.81-10.93-14.94-5.56C40.25,120.2,50,118.26,52.4,115.08Z"/><path d="M67.24,117.63s1.32-11.5-11-11.5C54.07,117,63.71,119.47,67.24,117.63Z"/><path d="M47.2,96.88s-7.68-8.65-15.93.55C37.92,106.25,46.21,100.73,47.2,96.88Z"/><path class="cls-2" d="M53.93,97.67s7.88-8.47-2.06-15.8C43.73,89.34,50,97.06,53.93,97.67Z"/><path class="cls-2" d="M70.28,85.14s7.88-8.48-2.06-15.81C60.08,76.8,66.36,84.52,70.28,85.14Z"/><path d="M70.56,92.28s11.28,2.57,12.63-9.71C72.66,79.27,69.12,88.58,70.56,92.28Z"/><path class="cls-2" d="M71.91,103.6s11.28,2.57,12.64-9.71C74,90.59,70.47,99.9,71.91,103.6Z"/><path d="M90,104.28s9.5-6.61,1.33-15.88C81.77,94,86.27,102.85,90,104.28Z"/><path d="M91.94,110.45S86,100.5,76.19,108C81.06,117.89,90.25,114,91.94,110.45Z"/><path d="M97.28,114.92s-10.5-4.87-14.39,6.85C92.51,127.2,97.91,118.84,97.28,114.92Z"/><path d="M97.49,71.65s-.79-11.54-12.94-9.3C84.42,73.39,94.35,74.1,97.49,71.65Z"/><path class="cls-2" d="M99.9,78.5s-7.28-9-15.93-.18C90.21,87.43,98.75,82.3,99.9,78.5Z"/><path class="cls-2" d="M91.94,45.55s-7.28-9-15.94-.18C82.24,54.48,90.78,49.35,91.94,45.55Z"/><path d="M98.54,52.08s-9.69-6.33-15.22,4.72C92.06,63.56,98.6,56.05,98.54,52.08Z"/><path class="cls-2" d="M97.12,46s5.69-10.07-5.69-14.88C85.25,40.24,93.16,46.29,97.12,46Z"/><path d="M106.43,43.28s11.44-1.69,8.26-13.62C103.67,30.39,103.74,40.35,106.43,43.28Z"/><path d="M126.71,44.29s11.45-1.68,8.26-13.62C124,31.41,124,41.36,126.71,44.29Z"/><path d="M126.69,49.85s-.65-11.56-12.83-9.46C113.6,51.43,123.53,52.25,126.69,49.85Z"/><path d="M128,58.82s-5.81-10-15.72-2.63C117.07,66.16,126.29,62.4,128,58.82Z"/><path d="M152.09,37.39s10.44-5,3.86-15.46C145.64,25.89,148.66,35.38,152.09,37.39Z"/><path d="M164.68,25.49s10.43-5,3.86-15.46C158.23,14,161.25,23.49,164.68,25.49Z"/><path d="M170.25,37.39s10.44-5,3.86-15.46C163.8,25.89,166.82,35.38,170.25,37.39Z"/><path d="M176.7,47.86s10.44-5,3.86-15.46C170.25,36.37,173.27,45.86,176.7,47.86Z"/><path d="M193.48,21.93s10.44-5,3.86-15.46C187,10.43,190.05,19.92,193.48,21.93Z"/><path d="M210.56,19.82s11.23,2.78,12.81-9.47C212.9,6.85,209.19,16.09,210.56,19.82Z"/><path d="M206.44,26.17s7.56,8.77,15.93-.31C215.85,16.94,207.48,22.34,206.44,26.17Z"/><path d="M227.56,18.67s.65,11.55,12.82,9.46C240.64,17.09,230.72,16.26,227.56,18.67Z"/><path d="M241.57,18.67s.65,11.55,12.82,9.46C254.65,17.09,244.73,16.26,241.57,18.67Z"/><path d="M254.83,0s-8.69,7.65.48,15.93C264.16,9.31,258.67,1,254.83,0Z"/><path d="M267.18,9.8s-8.68,7.65.49,15.93C276.51,19.11,271,10.8,267.18,9.8Z"/><path class="cls-2" d="M280.21,22.87s-11.44-1.75-11.91,10.59C279.05,36,281.91,26.46,280.21,22.87Z"/><path d="M282.52,36.44s-9.69-6.31-15.21,4.74C276.06,47.92,282.59,40.41,282.52,36.44Z"/><path d="M316.18,24.59s-9.7-6.32-15.22,4.73C309.71,36.07,316.25,28.56,316.18,24.59Z"/><path d="M308.91,39.87s-8-8.4-15.9,1.07C300,49.53,308.05,43.75,308.91,39.87Z"/><path class="cls-2" d="M306.08,49.88s-8-8.4-15.9,1.06C297.12,59.54,305.22,53.75,306.08,49.88Z"/><path d="M322.82,29.62S313,35.7,320.61,45.4C330.44,40.37,326.44,31.25,322.82,29.62Z"/><path d="M308.77,45.55s-3.71,11,8.36,13.57C321.5,49,312.6,44.5,308.77,45.55Z"/><path d="M348.51,33s-10.38,5.13-3.67,15.5C355.09,44.44,352,35,348.51,33Z"/><path d="M335.23,43.17s-10.38,5.13-3.67,15.51C341.82,54.58,338.68,45.13,335.23,43.17Z"/><path d="M358.49,54.06s-6.92-9.28-15.91-.81C348.46,62.6,357.19,57.81,358.49,54.06Z"/><path d="M344.25,67.27s-6-9.9-15.77-2.33C333.44,74.81,342.59,70.88,344.25,67.27Z"/><path d="M306.55,102.2s1.36-11.49-11-11.53C293.39,101.5,303,104,306.55,102.2Z"/><path d="M313.94,75.73s-11.57-.42-10.6,11.89C314.31,88.9,316,79.09,313.94,75.73Z"/><path d="M319.15,75.73s-5.95,9.93,5.3,15C330.87,81.77,323.12,75.51,319.15,75.73Z"/><path class="cls-2" d="M333.28,74.22s-6,9.92,5.29,15C345,80.26,337.24,74,333.28,74.22Z"/><path d="M358.43,69.65S346.86,69.41,348,81.71C359,82.82,360.59,73,358.43,69.65Z"/><path d="M374.66,65.65s-11.57-.24-10.42,12.06C375.23,78.82,376.81,69,374.66,65.65Z"/><path d="M346.12,84.67s-5,10.46,6.73,14.45C358.36,89.55,350,84.07,346.12,84.67Z"/><path d="M333.06,100.17s7.16,9.09,15.93.4C342.87,91.37,334.27,96.38,333.06,100.17Z"/><path class="cls-2" d="M320,103.41s3.15,11.14,14.58,6.45C332.4,99,322.53,100.38,320,103.41Z"/><path d="M367.52,95s7.16,9.1,15.93.4C377.34,86.16,368.73,91.17,367.52,95Z"/><path d="M358.73,106.49s9.06,7.21,15.59-3.28C366.25,95.67,359,102.53,358.73,106.49Z"/><path d="M393.91,87.74s11.32-2.41,7.39-14.12C390.35,75.05,391.05,85,393.91,87.74Z"/><path d="M390.48,93.59s4.82-10.52-6.93-14.34C378.17,88.89,386.57,94.25,390.48,93.59Z"/><path d="M393.63,95s9.53,6.57,15.34-4.33C400.41,83.65,393.67,91,393.63,95Z"/><path d="M388.75,107.59s9.52,6.57,15.33-4.33C395.52,96.28,388.78,103.62,388.75,107.59Z"/><path d="M418.16,115.2s9.52,6.58,15.33-4.32C424.93,103.9,418.19,111.23,418.16,115.2Z"/><path d="M409.71,117.67s11.38-2.14,7.72-13.94C406.45,104.9,406.92,114.85,409.71,117.67Z"/><path d="M404.57,124.08s6,9.87,15.77,2.27C415.35,116.5,406.21,120.46,404.57,124.08Z"/><path d="M404.57,142.52s6,9.87,15.77,2.27C415.35,134.94,406.21,138.9,404.57,142.52Z"/><path d="M369.82,142.52s6,9.87,15.77,2.27C380.6,134.94,371.47,138.9,369.82,142.52Z"/><path d="M365.2,138.58s10.38-5.11,3.7-15.49C358.63,127.16,361.75,136.61,365.2,138.58Z"/><path d="M338.54,147.68s3.85,10.92,14.95,5.51C350.66,142.52,340.9,144.49,338.54,147.68Z"/><path d="M324.23,152.46s3.84,10.91,14.95,5.5C336.35,147.29,326.59,149.27,324.23,152.46Z"/><path d="M344.91,142s11.47,1.58,11.75-10.77C345.87,128.83,343.16,138.41,344.91,142Z"/><path d="M313.79,124.65s10.9-3.89,5.45-15C308.58,112.55,310.59,122.31,313.79,124.65Z"/><path class="cls-2" d="M311.22,133.44s.95-11.54-11.39-11.14C298,133.2,307.76,135.38,311.22,133.44Z"/><path class="cls-2" d="M314.58,135.9s11.27,2.62,12.68-9.65C316.74,122.9,313.16,132.19,314.58,135.9Z"/><path d="M283.88,146.53s8.54,7.82,15.78-2.18C292.14,136.26,284.46,142.6,283.88,146.53Z"/><path d="M278.37,157.69s8.54,7.82,15.78-2.18C286.63,147.42,279,153.77,278.37,157.69Z"/><path d="M276.23,150s8.12-8.25-1.61-15.86C266.27,141.34,272.32,149.24,276.23,150Z"/><path d="M268.62,162.62s8.13-8.24-1.6-15.85C258.66,154,264.72,161.9,268.62,162.62Z"/><path d="M362.48,155.88s10.25,5.39,14.71-6.13C367.85,143.85,362,151.94,362.48,155.88Z"/><path class="cls-2" d="M387.94,152.3s10.24,5.38,14.7-6.13C393.31,140.26,387.5,148.35,387.94,152.3Z"/><path d="M426.46,159.93s2.32,11.34,14.06,7.5C439.18,156.47,429.24,157.09,426.46,159.93Z"/><path d="M423.5,157.25s10.9,3.9,13.7-8.13C427.13,144.59,422.52,153.41,423.5,157.25Z"/><path d="M423.76,179.35s2.32,11.34,14.05,7.5C436.47,175.89,426.53,176.51,423.76,179.35Z"/><path d="M371.39,187.65s-5.94,9.94,5.32,15C383.11,193.67,375.35,187.43,371.39,187.65Z"/><path d="M364.43,179.18s6.59,9.52,15.87,1.37C374.76,171,365.86,175.48,364.43,179.18Z"/><path d="M409.21,177.58s-.77,11.55,11.57,10.95C422.39,177.61,412.64,175.58,409.21,177.58Z"/><path d="M412,172.28s11.36,2.26,12.36-10.05C413.72,159.22,410.44,168.62,412,172.28Z"/><path d="M380.92,163.15s8.69,7.66,15.74-2.48C389,152.73,381.43,159.21,380.92,163.15Z"/><path d="M396.21,135.81s8.69,7.66,15.74-2.48C404.27,125.39,396.71,131.87,396.21,135.81Z"/><path d="M392.1,175.63S394.51,187,406.22,183C404.79,172.06,394.85,172.77,392.1,175.63Z"/><path d="M357.58,178.11s-8.16,8.21,1.53,15.85C367.5,186.78,361.48,178.85,357.58,178.11Z"/><path d="M379.08,76.16s-11.57-.24-10.41,12.06C379.66,89.33,381.24,79.5,379.08,76.16Z"/><path d="M296.07,19.65s-10.35,5.17-3.61,15.52C302.71,31,299.53,21.6,296.07,19.65Z"/><path d="M211.08,33.72s2.13,11.37,13.94,7.72C223.85,30.46,213.9,30.92,211.08,33.72Z"/><path d="M211,48.37s7.37,8.93,15.94,0C220.65,39.35,212.17,44.56,211,48.37Z"/><path class="cls-2" d="M215.41,63.21s7.36,8.93,15.93,0C225,54.19,216.53,59.4,215.41,63.21Z"/><path d="M232.3,32s-9.68,6.35-1.76,15.84C240.22,42.56,236,33.56,232.3,32Z"/><path d="M245.58,46.24S234.28,43.71,233,56C243.53,59.26,247,49.93,245.58,46.24Z"/><path d="M257.1,66.69s-11,3.56-5.91,14.8C261.94,79,260.23,69.14,257.1,66.69Z"/><path d="M244,74.84s-11,3.55-5.91,14.79C248.85,87.09,247.14,77.28,244,74.84Z"/><path d="M243.15,96.29s7.84,8.51,15.92-.84C252.25,86.76,244.06,92.42,243.15,96.29Z"/><path d="M249.84,104.44s7.85,8.51,15.92-.84C259,94.91,250.76,100.57,249.84,104.44Z"/><path d="M278.37,81.56s-6.69-9.44-15.89-1.19C268.13,89.86,277,85.28,278.37,81.56Z"/><path d="M194.47,31.13s0-11.58-12.28-10.16C181.31,32,191.18,33.36,194.47,31.13Z"/><path class="cls-2" d="M199.6,40.88s-7.5-8.82-15.94.2C190.12,50,198.53,44.7,199.6,40.88Z"/><path d="M252.4,38.64s-7.5-8.82-15.93.21C242.93,47.8,251.33,42.47,252.4,38.64Z"/><path d="M146.92,46.2s6.54-9.54-4.37-15.33C135.59,39.45,142.94,46.17,146.92,46.2Z"/><path d="M140.39,56.52S146.94,47,136,41.19C129.07,49.77,136.42,56.49,140.39,56.52Z"/><path d="M150.17,44.84s7.85,8.5,15.91-.86C159.26,35.3,151.08,41,150.17,44.84Z"/><path class="cls-2" d="M135.53,70.87s7.85,8.51,15.92-.85C144.62,61.33,136.44,67,135.53,70.87Z"/><path class="cls-2" d="M147.65,60.73s7.85,8.51,15.91-.85C156.74,51.19,148.56,56.87,147.65,60.73Z"/><path d="M159.51,72.54s11.36,2.22,12.32-10.09C161.2,59.47,158,68.89,159.51,72.54Z"/><path d="M170.52,78.24s11.42,1.83,12-10.51C171.76,65.12,168.84,74.64,170.52,78.24Z"/><path d="M161,49.63s-.42,11.57,11.9,10.6C174.19,49.26,164.38,47.53,161,49.63Z"/><path d="M107.81,110.07s11.57-.22,9.93-12.46C106.71,96.94,105.52,106.82,107.81,110.07Z"/><path d="M130.28,115.32s5.22-10.33-6.37-14.6C118.16,110.15,126.34,115.83,130.28,115.32Z"/><path class="cls-2" d="M129.88,117.81s-7.83-8.52-15.91.81C120.76,127.33,129,121.68,129.88,117.81Z"/><path d="M132.81,101s.09-11.57-12.19-10.25C119.65,101.78,129.5,103.23,132.81,101Z"/><path d="M145.94,110.79s7.31-9-3.1-15.63C135.21,103.13,142,110.43,145.94,110.79Z"/><path d="M149.42,116.64s11.53-1,9-13.13C147.41,103.61,146.91,113.56,149.42,116.64Z"/><path d="M213.35,78.43S215.11,67,202.76,66.52C200.22,77.27,209.76,80.13,213.35,78.43Z"/><path class="cls-2" d="M213.86,81.31S203.75,75.68,199,87.09C208.2,93.21,214.2,85.27,213.86,81.31Z"/><path d="M221.29,84.7s10.22-5.43,3.22-15.61C214.38,73.48,217.78,82.84,221.29,84.7Z"/><path d="M206.39,111.4s-3.48-11-14.76-6C194.1,116.16,203.92,114.51,206.39,111.4Z"/><path d="M215.06,109.56s2.92-11.2-9.32-12.93C202.12,107.07,211.32,110.88,215.06,109.56Z"/><path d="M213.59,114.43s-10.45-5-14.45,6.71C208.7,126.67,214.19,118.36,213.59,114.43Z"/><path d="M235.48,131.48s-6.41-9.64-15.85-1.67C225,139.46,234,135.15,235.48,131.48Z"/><path d="M228.47,142.25s-4.45-10.69-15.23-4.67C216.65,148.08,226.29,145.57,228.47,142.25Z"/><path d="M184.84,150.63s7.23-9-3.23-15.6C174,143.07,180.88,150.31,184.84,150.63Z"/><path d="M191.43,161.43s-4.24-10.77-15.15-5C179.5,167,189.18,164.71,191.43,161.43Z"/><path d="M201,161.75s-11.09-3.32-13.26,8.84C198,174.59,202.18,165.54,201,161.75Z"/><path d="M193.15,154.19s8.66-7.67-.53-15.92C183.8,144.9,189.3,153.2,193.15,154.19Z"/><path d="M166.71,154.36s-4.24-10.77-15.14-5C154.78,160,164.47,157.64,166.71,154.36Z"/><path d="M164,140.54s-4.24-10.77-15.15-5C152.08,146.15,161.76,143.82,164,140.54Z"/><path d="M138.18,125.85s-9-7.28-15.62,3.14C130.57,136.6,137.84,129.81,138.18,125.85Z"/><path d="M107.2,96s11.57-.22,9.93-12.46C106.11,82.89,104.91,92.77,107.2,96Z"/><path d="M103.52,77.16s10.14-5.59,3-15.65C96.43,66.06,100,75.36,103.52,77.16Z"/><path d="M94.35,162.26s-6.24-9.75-15.82-1.94C83.73,170.06,92.78,165.9,94.35,162.26Z"/><path class="cls-2" d="M75.55,180.27s7.46-8.84-2.83-15.68C65,172.44,71.6,179.85,75.55,180.27Z"/><path d="M97.41,167.84s-10.12-5.61-14.84,5.81C91.78,179.75,97.76,171.79,97.41,167.84Z"/><path d="M76.42,197.34s-11.32-2.41-12.5,9.89C74.51,210.38,77.91,201,76.42,197.34Z"/><path d="M66.35,179.18S56.23,173.57,51.52,185C60.72,191.09,66.71,183.14,66.35,179.18Z"/><path d="M111.63,173s10-5.87,2.54-15.73C104.23,162.11,108,171.31,111.63,173Z"/><path class="cls-2" d="M102.84,168.59s8.6-7.74-.65-15.92C93.41,159.37,99,167.63,102.84,168.59Z"/></g></g></svg>